# xmcd
#
# Track frame offsets:
#	150
#	17727
#	31339
#	49173
#	70649
#	92031
#	108915
#	123130
#	138605
#	154966
#	171325
#	186779
#	203426
#	219650
#
# Disc length: 3219 seconds
#
# Revision: 1
# Processed by: cddbd v1.5.2PL0 Copyright (c) Steve Scherf et al.
# Submitted via: audiograbber 1.83.01
#
DISCID=be0c910e
DTITLE=Laith Al-Deen - Die Lisbe zum Detail
DYEAR=2007
DGENRE=
TTITLE0=Alles unter diesem Himmel
TTITLE1=Keine wie du
TTITLE2=Es wird nicht leicht sein
TTITLE3=Die Liebe zum Detail
TTITLE4=Hinter dir
TTITLE5=Du
TTITLE6=Worum es dir geht
TTITLE7=Wo du bist
TTITLE8=Der Beginn
TTITLE9=Ich hab' dir nie gesagt
TTITLE10=Ganz nah
TTITLE11=Stille
TTITLE12=Federleicht
TTITLE13=Outro
EXTD=
EXTT0=
EXTT1=
EXTT2=
EXTT3=
EXTT4=
EXTT5=
EXTT6=
EXTT7=
EXTT8=
EXTT9=
EXTT10=
EXTT11=
EXTT12=
EXTT13=
PLAYORDER=
